<?xml version="1.0" standalone="no"?>
<!DOCTYPE svg PUBLIC "-//W3C//DTD SVG 20010904//EN"
 "http://www.w3.org/TR/2001/REC-SVG-20010904/DTD/svg10.dtd">
<svg version="1.0" xmlns="http://www.w3.org/2000/svg"
 width="1084.000000pt" height="1084.000000pt" viewBox="0 0 1084.000000 1084.000000"
 preserveAspectRatio="xMidYMid meet">
<metadata>
Created by potrace 1.11, written by Peter Selinger 2001-2013
</metadata>
<g transform="translate(0.000000,1084.000000) scale(0.100000,-0.100000)"
fill="#000000" stroke="none">
<path d="M1650 10825 c-77 -15 -124 -41 -178 -94 -72 -72 -125 -182 -158 -331
-30 -131 -34 -162 -51 -385 -10 -133 -9 -2068 2 -2640 11 -602 22 -1073 30
-1300 2 -60 7 -204 10 -320 3 -115 8 -257 10 -315 2 -58 7 -179 10 -270 3 -91
7 -205 10 -255 2 -49 7 -157 10 -240 9 -234 15 -372 20 -480 3 -55 7 -152 10
-215 3 -63 7 -155 10 -205 2 -49 7 -146 10 -215 3 -69 8 -152 10 -185 2 -33 6
-118 10 -190 13 -235 20 -369 29 -525 3 -47 8 -130 11 -185 3 -55 7 -127 10
-160 3 -33 7 -95 10 -137 10 -154 15 -234 20 -293 3 -33 7 -96 10 -140 3 -44
8 -107 11 -140 3 -33 7 -86 9 -119 2 -32 6 -79 9 -105 3 -25 8 -75 11 -111 15
-169 31 -318 40 -370 2 -14 7 -50 10 -80 25 -218 77 -301 305 -483 79 -64 294
-176 445 -232 177 -67 323 -98 460 -99 127 -1 182 10 214 46 18 18 21 19 77 3
61 -16 64 -17 154 -37 30 -6 109 -12 175 -12 113 -1 123 1 166 26 73 43 79 71
65 298 -11 174 -16 262 -21 320 -2 30 -7 93 -10 140 -3 47 -8 121 -11 165 -3
44 -7 107 -9 140 -4 69 -12 191 -30 430 -6 82 -15 206 -20 290 -2 39 -7 97 -9
130 -3 33 -8 94 -11 135 -12 185 -16 238 -20 285 -2 28 -7 91 -10 140 -3 50
-8 113 -10 140 -3 28 -7 92 -10 144 -3 52 -8 113 -10 135 -2 23 -7 86 -10 141
-3 55 -8 108 -11 118 -3 9 -2 17 2 17 4 0 62 -30 128 -66 67 -37 150 -82 186
-102 36 -19 103 -56 150 -82 47 -26 121 -66 165 -90 44 -24 100 -54 124 -67
42 -23 78 -42 411 -218 179 -94 722 -365 915 -457 134 -63 495 -228 501 -228
2 0 27 -11 56 -24 30 -14 78 -34 108 -46 30 -12 69 -28 85 -35 17 -7 82 -34
145 -58 63 -25 144 -56 180 -70 94 -37 502 -172 590 -196 197 -53 278 -72 459
-106 164 -31 493 -50 566 -32 11 2 35 8 54 12 47 11 105 71 119 126 25 93 19
227 -14 339 -40 130 -124 242 -238 315 -50 32 -291 152 -416 208 -163 72 -451
190 -800 327 -934 366 -1458 578 -1690 683 -30 14 -76 34 -102 46 -194 86
-290 131 -488 230 -179 89 -391 200 -427 224 -11 7 48 70 137 147 14 12 61 54
105 93 171 154 193 174 255 228 129 112 377 325 430 369 30 25 68 57 84 72 55
48 480 402 577 480 52 42 103 85 114 95 11 10 32 27 46 38 15 11 100 80 190
154 90 73 182 147 204 165 21 17 53 43 70 57 16 14 183 148 370 298 187 149
347 277 355 284 44 36 157 125 181 142 15 11 121 95 235 186 284 225 834 655
1169 914 157 122 791 609 818 630 83 62 -43 255 -267 410 -122 84 -285 162
-376 179 -19 3 -44 8 -56 10 -11 2 -40 0 -65 -4 -24 -5 -57 -11 -74 -14 -120
-21 -287 -72 -475 -145 -66 -26 -58 -22 -245 -111 -620 -294 -1421 -849 -2353
-1630 -102 -85 -203 -170 -226 -188 -22 -19 -43 -37 -46 -40 -3 -4 -34 -32
-70 -62 -145 -123 -632 -551 -670 -590 -8 -8 -60 -55 -115 -105 -55 -49 -125
-113 -155 -141 -30 -28 -80 -73 -110 -100 -30 -27 -67 -60 -81 -74 -32 -30
-62 -57 -239 -220 -74 -68 -137 -126 -140 -129 -3 -3 -48 -44 -100 -91 -52
-47 -97 -87 -100 -90 -64 -61 -91 -83 -96 -78 -19 20 -49 243 -60 443 -19 375
-23 1539 -13 3960 2 424 0 795 -3 826 -21 183 -212 353 -574 509 -182 79 -340
121 -467 124 -101 3 -152 -6 -227 -40 -54 -24 -62 -25 -97 -13 -21 7 -42 14
-48 15 -5 1 -38 10 -73 19 -78 20 -219 25 -292 10z"/>
</g>
</svg>
